<svg xmlns="http://www.w3.org/2000/svg" xmlns:xlink="http://www.w3.org/1999/xlink" width="32" height="32" viewBox="0 0 32 32">
  <defs>
    <clipPath id="clip-path">
      <path id="Rectangle_2" data-name="Rectangle 2" d="M16,0H32a0,0,0,0,1,0,0V16A16,16,0,0,1,16,32h0A16,16,0,0,1,0,16v0A16,16,0,0,1,16,0Z" transform="translate(731.093 203.005)" fill="#fff"/>
    </clipPath>
    <clipPath id="clip-path-2">
      <path id="Path_5" data-name="Path 5" d="M889.785,0V494.325H0V0Z"/>
    </clipPath>
    <clipPath id="clip-path-3">
      <path id="Path_2" data-name="Path 2" d="M25.952,0a6.179,6.179,0,0,1,6.179,6.179V25.952a6.179,6.179,0,0,1-6.179,6.179H6.179A6.179,6.179,0,0,1,0,25.952V6.179A6.179,6.179,0,0,1,6.179,0Z" transform="translate(0 0)"/>
    </clipPath>
    <clipPath id="clip-path-4">
      <path id="Path_4" data-name="Path 4" d="M11.056,0a.481.481,0,0,1,.481.33l2.414,7.206H21.68a.478.478,0,0,1,.284.863l-6.278,4.569L18.1,20.425a.477.477,0,0,1-.175.535.483.483,0,0,1-.566,0L11.08,16.39,4.8,20.958a.483.483,0,0,1-.566,0,.477.477,0,0,1-.175-.535l2.412-7.456L.2,8.4a.478.478,0,0,1,.284-.863H8.21L10.624.33A.48.48,0,0,1,11.056,0Zm.024,1.994L9.013,8.164a.481.481,0,0,1-.457.33h-6.6L7.328,12.4a.477.477,0,0,1,.174.534L5.434,19.318l5.363-3.9a.483.483,0,0,1,.568,0l5.363,3.9-2.067-6.382a.477.477,0,0,1,.174-.534l5.371-3.909H13.6a.481.481,0,0,1-.457-.33Z" transform="translate(0)"/>
    </clipPath>
  </defs>
  <g id="Mask_Group_1" data-name="Mask Group 1" transform="translate(-731.093 -203.005)" clip-path="url(#clip-path)">
    <g id="logo" transform="translate(700.099 185.054)">
      <g id="Group_6" data-name="Group 6" clip-path="url(#clip-path-2)">
        <g id="Group_5" data-name="Group 5" transform="translate(30.895 17.919)">
          <g id="Group_1" data-name="Group 1" transform="translate(0 0)" clip-path="url(#clip-path-3)">
            <path id="Path_1" data-name="Path 1" d="M0,0H32.131V32.131H0Z" transform="translate(0 0)"/>
          </g>
          <g id="Group_4" data-name="Group 4" transform="translate(4.986 5.54)">
            <g id="Group_3" data-name="Group 3" transform="translate(0 0)">
              <g id="Group_2" data-name="Group 2" clip-path="url(#clip-path-4)">
                <path id="Path_3" data-name="Path 3" d="M0,0H22.159V21.051H0Z" transform="translate(0 0)" fill="#fff"/>
              </g>
            </g>
          </g>
        </g>
      </g>
    </g>
  </g>
</svg>
